<svg width="323" height="110" viewBox="0 0 323 110" fill="none" xmlns="http://www.w3.org/2000/svg">
<path d="M100.9 40.2V71H93.772V58.372H79.78V71H72.652V40.2H79.78V52.344H93.772V40.2H100.9ZM128.471 64.4H114.171L111.443 71H104.139L117.867 40.2H124.907L138.679 71H131.199L128.471 64.4ZM126.227 58.988L121.343 47.196L116.459 58.988H126.227ZM164.491 54.984C166.251 55.5413 167.629 56.48 168.627 57.8C169.624 59.0907 170.123 60.6893 170.123 62.596C170.123 65.2947 169.067 67.3773 166.955 68.844C164.872 70.2813 161.821 71 157.803 71H141.875V40.2H156.923C160.677 40.2 163.552 40.9187 165.547 42.356C167.571 43.7933 168.583 45.744 168.583 48.208C168.583 49.704 168.216 51.0387 167.483 52.212C166.779 53.3853 165.781 54.3093 164.491 54.984ZM148.959 45.568V52.828H156.043C157.803 52.828 159.137 52.52 160.047 51.904C160.956 51.288 161.411 50.3787 161.411 49.176C161.411 47.9733 160.956 47.0787 160.047 46.492C159.137 45.876 157.803 45.568 156.043 45.568H148.959ZM157.275 65.632C159.152 65.632 160.56 65.324 161.499 64.708C162.467 64.092 162.951 63.1387 162.951 61.848C162.951 59.296 161.059 58.02 157.275 58.02H148.959V65.632H157.275ZM175.519 40.2H182.647V71H175.519V40.2ZM200.077 71.528C197.642 71.528 195.281 71.2053 192.993 70.56C190.734 69.8853 188.915 69.02 187.537 67.964L189.957 62.596C191.277 63.564 192.846 64.3413 194.665 64.928C196.483 65.5147 198.302 65.808 200.121 65.808C202.145 65.808 203.641 65.5147 204.609 64.928C205.577 64.312 206.061 63.5053 206.061 62.508C206.061 61.7747 205.767 61.1733 205.181 60.704C204.623 60.2053 203.89 59.8093 202.981 59.516C202.101 59.2227 200.898 58.9 199.373 58.548C197.026 57.9907 195.105 57.4333 193.609 56.876C192.113 56.3187 190.822 55.424 189.737 54.192C188.681 52.96 188.153 51.3173 188.153 49.264C188.153 47.4747 188.637 45.8613 189.605 44.424C190.573 42.9573 192.025 41.7987 193.961 40.948C195.926 40.0973 198.317 39.672 201.133 39.672C203.098 39.672 205.019 39.9067 206.897 40.376C208.774 40.8453 210.417 41.52 211.825 42.4L209.625 47.812C206.779 46.1987 203.934 45.392 201.089 45.392C199.094 45.392 197.613 45.7147 196.645 46.36C195.706 47.0053 195.237 47.856 195.237 48.912C195.237 49.968 195.779 50.76 196.865 51.288C197.979 51.7867 199.666 52.2853 201.925 52.784C204.271 53.3413 206.193 53.8987 207.689 54.456C209.185 55.0133 210.461 55.8933 211.517 57.096C212.602 58.2987 213.145 59.9267 213.145 61.98C213.145 63.74 212.646 65.3533 211.649 66.82C210.681 68.2573 209.214 69.4013 207.249 70.252C205.283 71.1027 202.893 71.528 200.077 71.528ZM231.347 40.2C234.075 40.2 236.437 40.6547 238.431 41.564C240.455 42.4733 242.01 43.764 243.095 45.436C244.181 47.108 244.723 49.088 244.723 51.376C244.723 53.6347 244.181 55.6147 243.095 57.316C242.01 58.988 240.455 60.2787 238.431 61.188C236.437 62.068 234.075 62.508 231.347 62.508H225.143V71H218.015V40.2H231.347ZM230.951 56.7C233.093 56.7 234.721 56.2453 235.835 55.336C236.95 54.3973 237.507 53.0773 237.507 51.376C237.507 49.6453 236.95 48.3253 235.835 47.416C234.721 46.4773 233.093 46.008 230.951 46.008H225.143V56.7H230.951ZM249.812 40.2H256.94V71H249.812V40.2ZM283.874 71L277.934 62.42H277.582H271.378V71H264.25V40.2H277.582C280.31 40.2 282.671 40.6547 284.666 41.564C286.69 42.4733 288.244 43.764 289.33 45.436C290.415 47.108 290.958 49.088 290.958 51.376C290.958 53.664 290.4 55.644 289.286 57.316C288.2 58.9587 286.646 60.22 284.622 61.1L291.53 71H283.874ZM283.742 51.376C283.742 49.6453 283.184 48.3253 282.07 47.416C280.955 46.4773 279.327 46.008 277.186 46.008H271.378V56.744H277.186C279.327 56.744 280.955 56.2747 282.07 55.336C283.184 54.3973 283.742 53.0773 283.742 51.376ZM320.453 65.28V71H296.605V40.2H319.881V45.92H303.689V52.608H317.989V58.152H303.689V65.28H320.453Z" fill="#0A3E09"/>
<path d="M42.5 45C20 50 14.75 65.425 9.55 78.35L14.275 80L16.65 74.25C17.85 74.675 19.1 75 20 75C47.5 75 55 32.5 55 32.5C52.5 37.5 35 38.125 22.5 40.625C10 43.125 5 53.75 5 58.75C5 63.75 9.375 68.125 9.375 68.125C17.5 45 42.5 45 42.5 45Z" fill="#0A3E09"/>
</svg>
